# xmcd
#
# Track frame offsets: 
#        182
#        20605
#        48877
#        69782
#        94110
#        104827
#        127175
#        151797
#        171457
#
# Disc length: 2602 seconds
#
# Revision: 6
# Processed by: cddbd v1.5.2PL0 Copyright (c) Steve Scherf et al.
# Submitted via: ExactAudioCopy v1.0b6
#
DISCID=750a2809
DTITLE=Lee Ritenour - Festival
DYEAR=1988
DGENRE=Fusion
TTITLE0=Night Rhythms
TTITLE1=Latin Lovers
TTITLE2=Humana
TTITLE3=Rio Sol
TTITLE4=Waiting For You
TTITLE5=Odile, Odila
TTITLE6=Linda
TTITLE7=New York - Brazil
TTITLE8=The Inner Look
EXTD=YEAR: 1988
EXTT0=
EXTT1=
EXTT2=
EXTT3=
EXTT4=
EXTT5=
EXTT6=
EXTT7=
EXTT8=
PLAYORDER=
